name cmcinput
datacolumns 36
datarows 11
range 0.5661162790697666 0.5761162790697666
cursor 1.0 1.0 0.0
keys m_key
wrap
enforce_loops no
enforce_constraints no
calc_derivatives 0.001000
event_color 1.000000 0.000000 1.000000
endheader
time						calcn_r_tx						calcn_r_ty				calcn_r_tz					calcn_r_r1					calcn_r_r2					calcn_r_r3					calcn_l_tx					calcn_l_ty						calcn_l_tz					calcn_l_r1				calcn_l_r2					calcn_l_r3					pelvis_tz					pelvis_tx					pelvis_ty					pelvis_tilt					pelvis_list					pelvis_rotation				hip_flexion_r				hip_adduction_r				hip_rotation_r				knee_angle_r				ankle_angle_r				subtalar_angle_r				mtp_angle_r				hip_flexion_l				hip_adduction_l				hip_rotation_l				knee_angle_l				ankle_angle_l				subtalar_angle_l				mtp_angle_l				lumbar_extension			lumbar_bending				lumbar_rotation			
      0.5661162790697666	      0.8142740093563994	      0.0622896514137921	     -0.6036755399418167	     -6.2134183494688955	     17.1327367690326330	     -3.4354020645701322	      0.4217222252299641	      0.1605642721107206	     -0.8020794721818573	     -0.8713971223956427	      1.8689308632742809	    -39.0358648578824730	     -0.7739785602489452	      0.8785825960189619	      0.8279144817218770	     -6.0140098824440171	     -7.9809923801712541	     14.0230532067103670	     20.7964710533471870	      2.0813631389267964	      3.1769060605619313	    -25.7402473611106370	      7.8200530604974929	      0.0000000000000240	      0.0000000000000140	     -4.5027879614076713	     -7.9780044426677721	     10.5160794620402150	    -31.7916122644892990	      5.1447655563934696	     -0.0000000000000017	     -0.0000000000000078	      0.8670827759655154	     10.0464976420489580	    -12.9932697305065850	    
      0.5671162790697666	      0.8141397440423283	      0.0625133971699945	     -0.6036972093482544	     -6.1664295575937293	     17.1194785613284000	     -3.5193590263605516	      0.4237217670648881	      0.1604864672731092	     -0.8019901664918759	     -0.8845416910779279	      1.8447335270122380	    -39.0050921183125750	     -0.7738236337994955	      0.8798863699876721	      0.8281461603505413	     -6.0371324276556493	     -8.0091598318463610	     13.9847450504180450	     20.6982130065849010	      2.1488933748768759	      3.1812666093426687	    -25.6872210839075810	      7.8223438883464587	      0.0000000000000245	      0.0000000000000143	     -4.3992140696220465	     -7.9739352097596248	     10.5180561610018800	    -31.8359647204468000	      5.1373555850339603	     -0.0000000000000016	     -0.0000000000000080	      0.9297883960156168	     10.0599861097624470	    -12.9565879058154450	    
      0.5681162790697666	      0.8140101983034581	      0.0627417377864560	     -0.6037178639870913	     -6.1196653809729140	     17.1056492844828230	     -3.6038316277621480	      0.4257359366512594	      0.1603983566184387	     -0.8019027455300812	     -0.8979698184035027	      1.8198900558446258	    -38.9714293509856590	     -0.7736693086577283	      0.8811859926761103	      0.8283813575342438	     -6.0599142283463747	     -8.0371202581751326	     13.9457810613093920	     20.5995043139868730	      2.2158741326153240	      3.1858594680976546	    -25.6326269540844790	      7.8224611545700657	      0.0000000000000249	      0.0000000000000146	     -4.2950694148647033	     -7.9693492052998893	     10.5200992404078130	    -31.8790244259499250	      5.1304417640842095	     -0.0000000000000015	     -0.0000000000000081	      0.9913630065638421	     10.0736795434688600	    -12.9187363392532770	    
      0.5691162790697666	      0.8138854361309380	      0.0629745904343225	     -0.6037373808808711	     -6.0731554263299863	     17.0912612898203660	     -3.6888161527116488	      0.4277647996973149	      0.1603000886432698	     -0.8018171641292876	     -0.9116934305982387	      1.7944001154606768	    -38.9348810849994460	     -0.7735155600864545	      0.8824813998550952	      0.8286200265905109	     -6.0823827209154144	     -8.0647708480040592	     13.9061251750057070	     20.5003987160591410	      2.2822005187003493	      3.1907703711094113	    -25.5765579340259390	      7.8204363996021939	      0.0000000000000253	      0.0000000000000150	     -4.1903374763370378	     -7.9641230992280887	     10.5221853465579580	    -31.9208261146949720	      5.1240334358633124	     -0.0000000000000015	     -0.0000000000000082	      1.0517840767584445	     10.0874623400513080	    -12.8796732262294430	    
      0.5701162790697666	      0.8137655132923053	      0.0632118686021616	     -0.6037556882306510	     -6.0269239462886510	     17.0763160862011740	     -3.7743014317323897	      0.4298084020001956	      0.1601917963880713	     -0.8017333897054311	     -0.9257190560795885	      1.7682624153852722	    -38.8954344280331700	     -0.7733623747341887	      0.8837725271898422	      0.8288621122588087	     -6.1045657139120149	     -8.0920283996368330	     13.8657563951542710	     20.4009506500813060	      2.3477824193301071	      3.1960524962626775	    -25.5190988228766890	      7.8163075938963571	      0.0000000000000259	      0.0000000000000152	     -4.0849904325111872	     -7.9581582237345536	     10.5242997081567680	    -31.9614132290863540	      5.1181636774350041	     -0.0000000000000014	     -0.0000000000000084	      1.1110388997176643	     10.1012394093987850	    -12.8393733936401180	    
      0.5711162790697666	      0.8136504772765109	      0.0634534876786857	     -0.6037727531970284	     -5.9809901544259505	     17.0608124754113710	     -3.8602698861977687	      0.4318667703936235	      0.1600735945010369	     -0.8016514002561916	     -0.9400470453987025	      1.7414768358949844	    -38.8530641118946110	     -0.7732097478627743	      0.8850593147946104	      0.8291075577025150	     -6.1264855154513755	     -8.1188307771921302	     13.8246669654966770	     20.3012086936871230	      2.4125498361868951	      3.2017360250177562	    -25.4603253576442090	      7.8101181045325179	      0.0000000000000265	      0.0000000000000154	     -3.9789979764757626	     -7.9513840700238596	     10.5264323105871270	    -32.0008324762664100	      5.1128818600417807	     -0.0000000000000013	     -0.0000000000000085	      1.1691182238096116	     10.1149393982284240	    -12.7978254680637440	    
      0.5721162790697666	      0.8135403661075210	      0.0636993682424134	     -0.6037885721715323	     -5.9353687027130926	     17.0447507727684810	     -3.9466995648378012	      0.4339399160095894	      0.1599455819835801	     -0.8015711808130897	     -0.9546717123225388	      1.7140463467628875	    -38.8077401261328350	     -0.7730576806641550	      0.8863417098077389	      0.8293563087099062	     -6.1481560604885752	     -8.1451352949527784	     13.7828598559807300	     20.2012122930780900	      2.4764536029173421	      3.2078354144126542	    -25.4003048859317640	      7.8019150852786652	      0.0000000000000271	      0.0000000000000155	     -3.8723329695858530	     -7.9437570813543026	     10.5285750919307420	    -32.0391298939709370	      5.1082438561080901	     -0.0000000000000013	     -0.0000000000000086	      1.2260121260152093	     10.1285137095888690	    -12.7550288107828300	    
      0.5731162790697666	      0.8134352071673663	      0.0639494372777509	     -0.6038031633931364	     -5.8900702758943204	     17.0281345394376120	     -4.0335655638982386	      0.4360278380753478	      0.1598078474746611	     -0.8014927214046225	     -0.9695819983552452	      1.6859781034700900	    -38.7594359237292710	     -0.7729061787450192	      0.8876196674184677	      0.8296083153092558	     -6.1695822872708534	     -8.1709162128263024	     13.7403469043508600	     20.1009909110910880	      2.5394637940080251	      3.2143539341936949	    -25.3390975442569970	      7.7917485704893608	      0.0000000000000278	      0.0000000000000156	     -3.7649739505463273	     -7.9352576104698809	     10.5307212640919160	    -32.0763485689590270	      5.1043021892746747	     -0.0000000000000012	     -0.0000000000000088	      1.2817082463020502	     10.1419339023885970	    -12.7109914758996860	    
      0.5741162790697666	      0.8133350163530502	      0.0642036288410543	     -0.6038165609021432	     -5.8451020964959124	     17.0109712488980560	     -4.1208418320911120	      0.4381305273516769	      0.1596604750332786	     -0.8014160175141767	     -0.9847623695124395	      1.6572836056930562	    -38.7081357717184250	     -0.7727552518518347	      0.8888931508105147	      0.8298635316098132	     -6.1907608798214646	     -8.1961623271194775	     13.6971479436005570	     20.0005646256173790	      2.6015672129243375	      3.2212860280426989	    -25.2767573344591340	      7.7796700514651462	      0.0000000000000286	      0.0000000000000158	     -3.6569053203962389	     -7.9258865377046490	     10.5328666004053650	    -32.1125277226223820	      5.1010975956862517	     -0.0000000000000012	     -0.0000000000000088	      1.3361917523003410	     10.1551887849235490	    -12.6657293894859380	    
      0.5751162790697666	      0.8132397998854285	      0.0644618888515223	     -0.6038288089285732	     -5.8004672220622044	     16.9932737023923120	     -4.2085126136645652	      0.4402479700107820	      0.1595035502046729	     -0.8013410661945248	     -1.0001936653079713	      1.6279797066335278	    -38.6538409530230780	     -0.7726049127054585	      0.8901621308129484	      0.8301219153470886	     -6.2116818049187392	     -8.2208737822120224	     13.6532886993462570	     19.8999453668937250	      2.6627639278209778	      3.2286200147502724	    -25.2133317090228850	      7.7657199570468141	      0.0000000000000293	      0.0000000000000159	     -3.5481170756250098	     -7.9156607346479761	     10.5350085395388820	    -32.1477018793579960	      5.0986518018029008	     -0.0000000000000011	     -0.0000000000000089	      1.3894457344108195	     10.1682805802291480	    -12.6192643780379510	    
      0.5761162790697666	      0.8131495769780641	      0.0647241662518922	     -0.6038399147133122	     -5.7561694842982760	     16.9750728460259030	     -4.2965716908929741	      0.4423801574624157	      0.1593371718873702	     -0.8012678612003811	     -1.0158569185386102	      1.5980871612897376	    -38.5965742823050850	     -0.7724551692160407	      0.8914265846511589	      0.8303834267706075	     -6.2323330931393999	     -8.2450474147281270	     13.6087916160998180	     19.7991411094986740	      2.7230541289024233	      3.2363647419969341	    -25.1488652628799760	      7.7499267368598046	      0.0000000000000301	      0.0000000000000159	     -3.4386060131595833	     -7.9045939840998267	     10.5371420899488100	    -32.1818981846403460	      5.0969606584884666	     -0.0000000000000011	     -0.0000000000000090	      1.4414504728866235	     10.1812076567065550	    -12.5716153568042120	    
